<?xml version="1.0" standalone="no"?>
<!DOCTYPE svg PUBLIC "-//W3C//DTD SVG 20010904//EN"
 "http://www.w3.org/TR/2001/REC-SVG-20010904/DTD/svg10.dtd">
<svg version="1.0" xmlns="http://www.w3.org/2000/svg"
 width="215.000000pt" height="215.000000pt" viewBox="0 0 215.000000 215.000000"
 preserveAspectRatio="xMidYMid meet">
<metadata>
IT68(https://www.it68.com.cn)'s icon
</metadata>
<g transform="translate(0.000000,215.000000) scale(0.100000,-0.100000)"
fill="#019c74" stroke="none">
<path d="M0 1075 l0 -1075 1075 0 1075 0 0 1075 0 1075 -1075 0 -1075 0 0
-1075z m640 -15 l0 -720 -148 0 -147 0 1 712 c1 392 2 716 3 721 0 4 66 7 146
7 l145 0 0 -720z m1308 593 c2 -94 0 -123 -10 -124 -7 -1 -101 -2 -208 -3
l-195 -1 -3 -592 -2 -593 -153 0 -152 0 3 590 c2 470 0 590 -10 591 -7 1 -101
2 -208 3 l-195 1 -3 128 -3 127 568 -2 568 -3 3 -122z"/>
</g>
</svg>
